<?xml version="1.0" standalone="no"?>
<!DOCTYPE svg PUBLIC "-//W3C//DTD SVG 20010904//EN"
 "http://www.w3.org/TR/2001/REC-SVG-20010904/DTD/svg10.dtd">
<svg version="1.0" xmlns="http://www.w3.org/2000/svg"
 width="128.000000pt" height="128.000000pt" viewBox="0 0 128.000000 128.000000"
 preserveAspectRatio="xMidYMid meet">
<metadata>
Created by potrace 1.11, written by Peter Selinger 2001-2013
</metadata>
<g transform="translate(0.000000,128.000000) scale(0.100000,-0.100000)"
fill="#000000" stroke="none">
<path d="M596 1265 c-11 -8 -31 -15 -44 -15 -13 0 -33 -5 -45 -12 -12 -7 -40
-14 -62 -17 -32 -5 -41 -11 -45 -31 -3 -14 -16 -46 -28 -72 -12 -25 -25 -75
-28 -110 -4 -34 -11 -68 -16 -74 -5 -8 -2 -13 9 -16 23 -6 30 -58 8 -58 -40 0
-21 -116 22 -135 12 -5 28 -21 34 -35 7 -14 23 -39 36 -56 l22 -32 -35 -6
c-41 -8 -98 -56 -119 -100 -10 -21 -28 -37 -50 -45 -44 -15 -108 -88 -123
-139 -7 -22 -12 -92 -12 -156 0 -103 2 -118 20 -136 19 -19 33 -20 500 -20
467 0 481 1 500 20 18 18 20 33 20 136 0 64 -5 134 -12 156 -15 52 -78 122
-128 142 -27 11 -42 24 -46 41 -9 35 -76 93 -118 100 l-35 7 30 40 c16 23 29
47 29 55 0 7 11 18 25 25 24 11 55 62 55 92 0 9 -8 24 -18 34 -25 25 -24 72 1
72 14 0 17 3 10 13 -6 6 -14 41 -17 77 -4 36 -17 85 -29 110 -11 25 -24 56
-27 70 -4 20 -13 26 -45 31 -22 3 -50 10 -61 17 -12 6 -36 13 -53 14 -18 1
-37 8 -43 15 -14 17 -58 16 -82 -2z"/>
</g>
</svg>
